<svg width="128" height="32" viewBox="0 0 128 32" xmlns="http://www.w3.org/2000/svg" fill="none"><g clip-path="url(#a)"><path d="M-1-1h34v34h-34v-34z"/><path d="M2 2h28v28h-28v-28z" fill="#6E5DF3"/><path d="M2 2h4v4h-4v-4zm4 4h20v20h-20v-20z" fill="#fff"/></g><g clip-path="url(#b)"><path d="M31-1h34v34h-34v-34z"/><path d="M34 2h28v28h-28v-28z" fill="#6E5DF3"/><path d="M34 2h4v4h-4v-4zm4 4h20v20h-20v-20z" fill="#fff"/></g><g clip-path="url(#c)"><path d="M63-1h34v34h-34v-34z"/><path d="M66 2h28v28h-28v-28z" fill="#6E5DF3"/><path d="M66 2h4v4h-4v-4zm4 4h20v20h-20v-20z" fill="#fff"/></g><g clip-path="url(#d)"><path d="M95-1h34v34h-34v-34z"/><path d="M98 2h28v28h-28v-28z" fill="#6E5DF3"/><path d="M98 2h4v4h-4v-4zm4 4h20v20h-20v-20z" fill="#fff"/></g><defs><clipPath id="a"><path fill="#fff" d="M0 0h32v32h-32z"/></clipPath><clipPath id="b"><path fill="#fff" d="M32 0h32v32h-32z"/></clipPath><clipPath id="c"><path fill="#fff" d="M64 0h32v32h-32z"/></clipPath><clipPath id="d"><path fill="#fff" d="M96 0h32v32h-32z"/></clipPath></defs></svg>