<svg width="96" height="64" viewBox="0 0 96 64" xmlns="http://www.w3.org/2000/svg" fill="none"><g clip-path="url(#a)"><path d="M31-1h34v34h-34v-34z"/><path d="M34 2h28v28h-28v-28z" fill="#E44437"/><path d="M34 2h4v4h-4v-4zm4 4h8v8h-8v-8z" fill="#fff"/><path d="M42 10h5v5h-5v-5z" fill="#E44437"/></g><g clip-path="url(#b)"><path d="M63-1h34v34h-34v-34z"/><path d="M66 2h28v28h-28v-28z" fill="#E44437"/><path d="M66 2h4v4h-4v-4zm4 4h8v8h-8v-8z" fill="#fff"/><path d="M74 10h5v5h-5v-5z" fill="#E44437"/></g><g clip-path="url(#c)"><path d="M-1-1h34v34h-34v-34z"/><path d="M2 2h28v28h-28v-28z" fill="#E44437"/><path d="M2 2h4v4h-4v-4zm4 4h8v8h-8v-8z" fill="#fff"/><path d="M10 10h5v5h-5v-5z" fill="#E44437"/></g><g clip-path="url(#d)"><path d="M63 31h34v34h-34v-34z"/><path d="M66 34h28v28h-28v-28z" fill="#E44437"/><path d="M66 34h4v4h-4v-4zm4 4h8v8h-8v-8z" fill="#fff"/><path d="M74 42h5v5h-5v-5z" fill="#E44437"/></g><defs><clipPath id="a"><path fill="#fff" d="M32 0h32v32h-32z"/></clipPath><clipPath id="b"><path fill="#fff" d="M64 0h32v32h-32z"/></clipPath><clipPath id="c"><path fill="#fff" d="M0 0h32v32h-32z"/></clipPath><clipPath id="d"><path fill="#fff" d="M64 32h32v32h-32z"/></clipPath></defs></svg>